PathFileType	4	(X/Y/Z)	1H_rest_slow_right.trc
DataRate	CameraRate	NumFrames	NumMarkers	Units	OrigDataRate	OrigDataStartFrame	OrigNumFrames
250.00	250.00	16	18	mm	250.00	1	21182
Frame#	Time	c7	r_should	l_should	clavicle	r_upa	r_elb_l	r_elb_m	r_low	r_wri_l	r_wri_m	r_met	l_upa	l_elb_l	l_elb_m	l_low	l_wri_l	l_wri_m	l_met
	X1	Y1	Z1	X2	Y2	Z2	X3	Y3	Z3	X4	Y4	Z4	X5	Y5	Z5	X6	Y6	Z6	X7	Y7	Z7	X8	Y8	Z8	X9	Y9	Z9	X10	Y10	Z10	X11	Y11	Z11	X12	Y12	Z12	X13	Y13	Z13	X14	Y14	Z14	X15	Y15	Z15	X16	Y16	Z16	X17	Y17	Z17	X18	Y18	Z18
1	0.00000	633.04407	1420.63660	306.69904	702.36108	1344.13794	445.21750	659.52881	1381.61658	130.64671	752.66101	1276.68713	271.69443	714.77112	1136.54492	507.23730	714.71362	1048.10168	527.91290	667.63812	1011.00836	459.22131	794.81836	886.73236	505.85693	834.30481	833.55841	475.89514	770.57495	792.91400	481.79044	879.56689	779.16205	517.38293	633.99023	1203.36353	38.58985	635.82227	1096.70764	17.84138	582.35797	1059.49060	76.91240	673.69281	934.41095	17.15118	702.06067	862.03564	51.53713	639.14514	842.00232	19.84597	733.64636	776.65265	20.89718
2	0.00400	632.88342	1420.64673	306.68903	702.20331	1344.19495	445.24225	659.37848	1381.60815	130.65398	752.53094	1276.71570	271.71631	714.56256	1136.62585	507.34805	714.49231	1048.22107	527.98779	667.52789	1011.11389	459.31952	795.05646	887.19373	505.79584	834.74103	834.24408	475.76672	771.14288	793.38013	481.60596	880.11206	779.90424	517.21912	633.90051	1203.32007	38.65025	635.76147	1096.65625	17.93257	582.28961	1059.44446	76.99868	673.68616	934.38623	17.27422	702.07202	862.01868	51.67381	639.15283	841.96375	19.99345	733.68683	776.64435	21.05997
3	0.00800	632.71954	1420.64954	306.68796	702.05292	1344.25244	445.25934	659.22656	1381.60095	130.65981	752.40253	1276.74316	271.73666	714.36023	1136.70605	507.45410	714.26965	1048.33508	528.06567	667.41003	1011.21356	459.41629	795.29523	887.66949	505.72531	835.17590	834.92279	475.61813	771.70593	793.84570	481.40472	880.68005	780.67780	517.06439	633.80548	1203.27881	38.70802	635.69574	1096.60315	18.02359	582.22198	1059.39062	77.08838	673.67676	934.36053	17.39602	702.07825	862.00677	51.81419	639.16589	841.91638	20.14834	733.72687	776.64081	21.22056
4	0.01200	632.55487	1420.64600	306.69803	701.91217	1344.30469	445.27911	659.06989	1381.59143	130.66476	752.26691	1276.77271	271.75235	714.16058	1136.78479	507.55817	714.04181	1048.44189	528.14587	667.27783	1011.31354	459.51819	795.53693	888.16608	505.65344	835.60712	835.59863	475.47638	772.27893	794.31213	481.19434	881.24481	781.44684	516.89502	633.70428	1203.22937	38.75756	635.62677	1096.55432	18.11055	582.15204	1059.33582	77.18572	673.65808	934.33636	17.51655	702.08539	861.98956	51.95980	639.18256	841.87073	20.29648	733.76715	776.63574	21.37218
5	0.01600	632.39752	1420.63989	306.71292	701.77643	1344.35315	445.29926	658.91028	1381.57935	130.68031	752.13336	1276.79822	271.76758	713.95624	1136.85657	507.66498	713.80212	1048.54712	528.23383	667.14398	1011.40942	459.62372	795.76904	888.67352	505.59409	836.03418	836.27228	475.36121	772.86176	794.75073	480.98746	881.80518	782.19794	516.71692	633.60547	1203.18237	38.80868	635.55609	1096.51050	18.20007	582.07257	1059.28723	77.28137	673.64124	934.31189	17.63920	702.09338	861.97583	52.10380	639.19604	841.82910	20.43998	733.80682	776.63184	21.52164
6	0.02000	632.24530	1420.63550	306.73157	701.63531	1344.39368	445.32068	658.74866	1381.57617	130.69220	751.99847	1276.81628	271.78867	713.74719	1136.92285	507.76804	713.54803	1048.66077	528.33112	667.00769	1011.50391	459.72986	795.98248	889.17358	505.54620	836.45227	836.94403	475.25122	773.43286	795.18475	480.79477	882.36194	782.97235	516.54730	633.51141	1203.13977	38.86831	635.48682	1096.46484	18.29165	582.00629	1059.23975	77.36972	673.62366	934.28943	17.76899	702.10028	861.97034	52.24603	639.20929	841.79077	20.57949	733.84705	776.63147	21.67245
7	0.02400	632.09406	1420.62939	306.75659	701.49994	1344.43286	445.33582	658.58936	1381.57434	130.70871	751.85846	1276.83447	271.81161	713.53436	1136.98987	507.86923	713.29108	1048.77405	528.42950	666.87109	1011.60046	459.83105	796.19049	889.65881	505.49893	836.86377	837.62561	475.13254	773.97900	795.64856	480.61438	882.93848	783.76483	516.38190	633.49554	1203.14502	39.02193	635.41376	1096.42444	18.38404	581.93304	1059.20422	77.46585	673.60260	934.26801	17.89700	702.10449	861.95978	52.38581	639.22559	841.75372	20.71889	733.88867	776.63501	21.82428
8	0.02800	631.94702	1420.62708	306.78265	701.36053	1344.47241	445.35556	658.43323	1381.57910	130.72643	751.72827	1276.85205	271.83331	713.31848	1137.05945	507.97559	713.03247	1048.88293	528.52521	666.72961	1011.69800	459.93372	796.40039	890.14233	505.46265	837.28387	838.32190	475.00705	774.52850	796.14581	480.44128	883.50500	784.54358	516.19617	633.57947	1203.18848	39.29057	635.34235	1096.39075	18.47563	581.85559	1059.16992	77.55710	673.58331	934.24884	18.02403	702.10925	861.95135	52.52880	639.24591	841.71930	20.85258	733.92889	776.63824	21.97783
9	0.03200	631.79846	1420.62964	306.80954	701.22070	1344.51196	445.37930	658.27484	1381.58240	130.74294	751.60138	1276.86426	271.85208	713.10022	1137.12903	508.08090	712.77094	1048.98694	528.61615	666.58105	1011.79340	460.03665	796.61194	890.62701	505.42511	837.69629	839.01819	474.87445	775.09119	796.64789	480.26370	884.07501	785.31982	515.99774	633.52094	1203.17322	39.39929	635.27167	1096.35657	18.56527	581.77777	1059.12854	77.64590	673.56952	934.23517	18.14547	702.11584	861.95013	52.66814	639.26813	841.68890	20.98564	733.97028	776.64331	22.13068
10	0.03600	631.64935	1420.63184	306.83514	701.07953	1344.54736	445.39578	658.11536	1381.58167	130.76218	751.47137	1276.87512	271.87061	712.89062	1137.19458	508.18527	712.50336	1049.08374	528.70465	666.42792	1011.88409	460.13098	796.82373	891.11627	505.38242	838.09625	839.71381	474.74945	775.64264	797.11945	480.08722	884.66302	786.11316	515.80231	633.42310	1203.14368	39.46826	635.19922	1096.32434	18.64965	581.70801	1059.09497	77.74316	673.55707	934.21960	18.26085	702.12610	861.94965	52.79870	639.28693	841.66272	21.11565	734.01886	776.65222	22.27329
11	0.04000	631.50214	1420.63208	306.86298	700.94476	1344.58228	445.41159	657.95795	1381.58264	130.77528	751.34406	1276.88562	271.88840	712.68799	1137.25781	508.27444	712.23938	1049.17883	528.79132	666.28076	1011.97363	460.21771	797.03223	891.62238	505.33133	838.49707	840.41693	474.62070	776.19946	797.57709	479.90561	885.25702	786.92010	515.60809	633.31458	1203.11206	39.52763	635.12622	1096.29419	18.73030	581.65411	1059.06067	77.83286	673.53931	934.19989	18.37557	702.14514	861.95300	52.92620	639.30676	841.63434	21.23996	734.06665	776.66333	22.40887
12	0.04400	631.35413	1420.63428	306.88770	700.82538	1344.61194	445.43155	657.80487	1381.58362	130.79051	751.22662	1276.90356	271.90396	712.49060	1137.32532	508.36533	711.98401	1049.27039	528.86951	666.14111	1012.06348	460.29877	797.24158	892.13843	505.27740	838.89642	841.11841	474.47913	776.74866	798.05627	479.70407	885.83331	787.72626	515.40875	633.20563	1203.08142	39.58060	635.04816	1096.26282	18.80604	581.59650	1059.02588	77.91386	673.52173	934.19012	18.48014	702.16528	861.96759	53.04002	639.32513	841.61359	21.36660	734.11530	776.68158	22.53965
13	0.04800	631.20886	1420.63452	306.91122	700.71600	1344.64600	445.44800	657.65002	1381.58337	130.81000	751.10815	1276.92029	271.91339	712.29688	1137.39136	508.44894	711.73297	1049.36841	528.93829	665.99152	1012.16815	460.38489	797.44452	892.65002	505.21506	839.30481	841.83722	474.32886	777.32428	798.55176	479.50494	886.40948	788.55090	515.20850	633.09515	1203.05603	39.63212	634.96338	1096.23462	18.88629	581.54559	1058.99353	77.99435	673.50165	934.18671	18.57945	702.18134	861.98553	53.14999	639.34357	841.60120	21.49052	734.16162	776.70844	22.66693
14	0.05200	631.06750	1420.63745	306.93674	700.60602	1344.68774	445.46634	657.49615	1381.58533	130.82980	750.99042	1276.93616	271.92334	712.10010	1137.45410	508.53418	711.48370	1049.46533	529.00574	665.83441	1012.26471	460.47653	797.64398	893.16193	505.13904	839.71436	842.56964	474.18289	777.89935	799.05304	479.30664	886.99799	789.39496	515.01239	632.97894	1203.03760	39.68187	634.87048	1096.21265	18.95592	581.49164	1058.96997	78.07327	673.47833	934.18073	18.67687	702.20123	862.00385	53.26051	639.35809	841.58600	21.60947	734.21021	776.74030	22.78887
15	0.05600	630.93127	1420.63647	306.95560	700.50208	1344.72485	445.48376	657.34100	1381.58630	130.85135	750.87543	1276.95166	271.93463	711.90063	1137.50793	508.61639	711.22491	1049.56055	529.07068	665.66003	1012.36084	460.57791	797.84052	893.67517	505.07675	840.10645	843.29883	474.04617	778.44122	799.54041	479.10779	887.57184	790.22681	514.81726	632.86102	1203.01868	39.72926	634.77496	1096.19092	19.02462	581.43420	1058.94751	78.15092	673.45129	934.17828	18.76727	702.21692	862.02240	53.36248	639.37170	841.56775	21.73019	734.25891	776.77374	22.90774
16	0.06000	630.80133	1420.62927	306.97327	700.39203	1344.75537	445.49347	657.18842	1381.58740	130.86752	750.76257	1276.96826	271.94806	711.70074	1137.55750	508.69821	710.96643	1049.65417	529.12775	665.49255	1012.45496	460.67233	798.04620	894.19403	505.01932	840.48950	844.02393	473.90067	778.98322	800.01678	478.89194	888.14789	791.06281	514.60681	632.74261	1203.00122	39.77766	634.67383	1096.16711	19.08755	581.37561	1058.92395	78.23059	673.42401	934.17688	18.85657	702.23358	862.04364	53.45801	639.38696	841.55060	21.85147	734.31146	776.80457	23.02762
